Coordinates
version=1
nRows=38
nColumns=38
inDegrees=no

Units are S.I. units (second, meters, Newtons, ...)
If the header above contains a line with 'inDegrees', this indicates whether rotational values are in degrees (yes) or radians (no).

endheader
time	pelvis_tilt	pelvis_list	pelvis_rotation	pelvis_tx	pelvis_ty	pelvis_tz	hip_flexion_r	hip_adduction_r	hip_rotation_r	knee_angle_r	ankle_angle_r	subtalar_angle_r	mtp_angle_r	hip_flexion_l	hip_adduction_l	hip_rotation_l	knee_angle_l	ankle_angle_l	subtalar_angle_l	mtp_angle_l	lumbar_extension	lumbar_bending	lumbar_rotation	arm_flex_r	arm_add_r	arm_rot_r	elbow_flex_r	pro_sup_r	wrist_flex_r	wrist_dev_r	arm_flex_l	arm_add_l	arm_rot_l	elbow_flex_l	pro_sup_l	wrist_flex_l	wrist_dev_l
0	3.11792	1.43093	1.67491	0.744954	1.12041	1.01631	0.76272	-0.0268311	-2.18488e-05	0.919356	0.0919223	0	0	0.142196	-0.0640401	-0.287409	0.565956	0.244364	0	0	0.0845014	0.0135484	-0.124523	-0.25053	-0.322836	0.730086	0.521194	1.09742	0	0	0.0751174	-0.419501	0.48757	0.603429	1.40472	0	0
0.01	3.12381	1.42193	1.67212	0.745386	1.11051	1.01419	0.773015	-0.0294252	-0.000801483	0.873627	0.109163	0	0	0.142479	-0.062988	-0.27907	0.567482	0.25005	0	0	0.0931828	0.0166095	-0.129515	-0.25812	-0.316284	0.717677	0.509763	1.10691	0	0	0.0799722	-0.425158	0.482123	0.61437	1.4049	0	0
0.02	3.12893	1.41409	1.66937	0.745841	1.0998	1.0121	0.780296	-0.0321335	-0.00530232	0.827176	0.124863	0	0	0.1393	-0.063336	-0.27678	0.567198	0.254345	0	0	0.101925	0.0199232	-0.133724	-0.266396	-0.309855	0.705193	0.497619	1.11669	0	0	0.0833938	-0.430488	0.478921	0.623948	1.40399	0	0
0.03	3.13156	1.40666	1.66783	0.746101	1.08874	1.00994	0.786631	-0.0338516	-0.010287	0.781729	0.137924	0	0	0.134444	-0.0641011	-0.277546	0.566284	0.257822	0	0	0.110727	0.0231551	-0.136504	-0.275106	-0.303846	0.691886	0.486423	1.12674	0	0	0.0866558	-0.435298	0.477693	0.631886	1.40136	0	0
0.04	3.13483	1.39947	1.66563	0.746265	1.07755	1.00777	0.791724	-0.0348185	-0.0151691	0.73664	0.149523	0	0	0.129057	-0.0650534	-0.278183	0.565258	0.262308	0	0	0.119258	0.0259186	-0.147074	-0.267533	-0.308414	0.749913	0.474748	1.06893	0	0	0.0780483	-0.439387	0.451125	0.645021	1.41365	0	0
0.05	3.13963	1.39321	1.66254	0.746429	1.06631	1.00562	0.795191	-0.0353832	-0.0194845	0.693543	0.159031	0	0	0.122872	-0.0663943	-0.278424	0.564508	0.26599	0	0	0.126309	0.0295803	-0.151561	-0.273038	-0.30168	0.739875	0.460747	1.07894	0	0	0.0792569	-0.44388	0.448127	0.652235	1.41179	0	0
0.06	-3.13625	1.38791	1.65773	0.746571	1.05492	1.00354	0.797147	-0.0355353	-0.0227936	0.654026	0.168106	0	0	0.115816	-0.068786	-0.278454	0.564107	0.268913	0	0	0.132486	0.0338326	-0.157052	-0.277606	-0.29473	0.729272	0.446206	1.09046	0	0	0.0803435	-0.447795	0.446081	0.657873	1.40868	0	0
0.07	-3.12504	1.38322	1.6501	0.746726	1.04337	1.00149	0.799091	-0.0354976	-0.0257354	0.62204	0.179217	0	0	0.108659	-0.072394	-0.27764	0.564391	0.270936	0	0	0.139095	0.0388176	-0.164318	-0.277748	-0.294358	0.75147	0.436283	1.06346	0	0	0.0813184	-0.451214	0.446806	0.66091	1.40284	0	0
0.08	-3.10956	1.37957	1.63917	0.746885	1.03172	0.999602	0.79939	-0.0346416	-0.0260332	0.594818	0.189403	0	0	0.101414	-0.0770561	-0.27579	0.565594	0.272362	0	0	0.142767	0.0448611	-0.171202	-0.285083	-0.281053	0.703751	0.417802	1.11711	0	0	0.0828255	-0.45342	0.445478	0.664082	1.39912	0	0
0.09	-3.09374	1.3764	1.62921	0.747074	1.01995	0.997828	0.800527	-0.0343363	-0.0259146	0.577471	0.202123	0	0	0.0945747	-0.0822433	-0.27365	0.567775	0.272032	0	0	0.147441	0.050343	-0.182408	-0.279786	-0.278421	0.734021	0.400433	1.09029	0	0	0.0825147	-0.457911	0.451042	0.666794	1.38242	0	0
0.1	-3.07889	1.37402	1.62159	0.747406	1.00815	0.996152	0.80287	-0.0352142	-0.0267669	0.57104	0.210107	0	0	0.0877561	-0.087586	-0.270975	0.571282	0.270615	0	0	0.150609	0.0561741	-0.192979	-0.280353	-0.272508	0.727082	0.386191	1.09935	0	0	0.0829386	-0.45965	0.452513	0.666844	1.37418	0	0
0.11	-3.06299	1.37265	1.61379	0.747797	0.996252	0.994607	0.804469	-0.0360868	-0.0268112	0.570583	0.212228	0	0	0.0807024	-0.0932725	-0.26744	0.576358	0.269017	0	0	0.152546	0.0626612	-0.205532	-0.279242	-0.27368	0.741588	0.381389	1.08079	0	0	0.0796937	-0.457553	0.438652	0.665458	1.38548	0	0
0.12	-3.04811	1.37119	1.60822	0.748154	0.984203	0.99316	0.806112	-0.0373093	-0.0259964	0.575827	0.213174	0	0	0.0747462	-0.0987262	-0.261728	0.582623	0.266106	0	0	0.155112	0.0680542	-0.218963	-0.276056	-0.270759	0.754845	0.368955	1.07004	0	0	0.0777174	-0.458865	0.439277	0.664648	1.37912	0	0
0.13	-3.03512	1.3693	1.60521	0.748433	0.971895	0.991742	0.809023	-0.0389814	-0.0255853	0.588853	0.212456	0	0	0.0699381	-0.10435	-0.255383	0.58942	0.260808	0	0	0.158547	0.0728586	-0.228633	-0.281289	-0.256631	0.698216	0.350265	1.13291	0	0	0.0813835	-0.461975	0.459516	0.661276	1.35661	0	0
0.14	-3.02185	1.36665	1.60225	0.748606	0.959257	0.990347	0.812649	-0.0403165	-0.0254416	0.607555	0.210481	0	0	0.0666597	-0.110382	-0.247541	0.596942	0.253093	0	0	0.165181	0.0769543	-0.24185	-0.274615	-0.260121	0.76157	0.341603	1.06667	0	0	0.0801671	-0.464633	0.475565	0.65751	1.33572	0	0
0.15	-3.00657	1.36421	1.59698	0.748661	0.946301	0.989068	0.813777	-0.0398567	-0.023009	0.626432	0.206128	0	0	0.0636486	-0.117278	-0.238768	0.605433	0.244781	0	0	0.170715	0.0821682	-0.25307	-0.276376	-0.255429	0.750225	0.332176	1.07791	0	0	0.0775596	-0.46335	0.481104	0.652861	1.32947	0	0
0.16	-2.99036	1.3616	1.59048	0.748608	0.932971	0.987831	0.813027	-0.0378079	-0.0196489	0.646152	0.199912	0	0	0.0612247	-0.124604	-0.229252	0.614763	0.235287	0	0	0.176963	0.0874929	-0.263471	-0.27878	-0.251358	0.737774	0.324337	1.08985	0	0	0.0734797	-0.461514	0.486084	0.64826	1.32533	0	0
0.17	-2.9704	1.35946	1.57959	0.748426	0.91928	0.986745	0.808713	-0.0335372	-0.0157395	0.662539	0.192212	0	0	0.0584866	-0.133067	-0.219058	0.624832	0.227683	0	0	0.182327	0.0939249	-0.276064	-0.277587	-0.25268	0.753367	0.321197	1.07335	0	0	0.0618065	-0.456174	0.469164	0.646002	1.3412	0	0
0.18	-2.94682	1.35553	1.564	0.748078	0.905374	0.98574	0.806186	-0.0289143	-0.0149953	0.677153	0.173984	0	0	0.0588219	-0.142437	-0.207473	0.637024	0.214734	0	0	0.191522	0.101256	-0.281011	-0.284335	-0.244914	0.709958	0.312094	1.11529	0	0	0.0621723	-0.454232	0.493675	0.636652	1.32419	0	0
0.19	-2.91512	1.35189	1.53754	0.747522	0.891444	0.985243	0.803572	-0.0231065	-0.0173943	0.685859	0.150544	0	0	0.0597418	-0.153516	-0.195946	0.651053	0.198572	0	0	0.19994	0.111465	-0.287772	-0.278753	-0.251592	0.772981	0.309672	1.04654	0	0	0.0560381	-0.447061	0.495673	0.625642	1.32864	0	0
0.2	-2.87704	1.35022	1.50181	0.746782	0.877492	0.98537	0.799446	-0.0159357	-0.0234592	0.69357	0.134983	0	0	0.0595464	-0.165956	-0.184823	0.667902	0.182773	0	0	0.203944	0.124746	-0.290626	-0.277753	-0.249727	0.761103	0.302953	1.05784	0	0	0.0516112	-0.438256	0.498375	0.61339	1.33237	0	0
0.21	-2.83801	1.3496	1.46179	0.745757	0.863514	0.985995	0.794228	-0.00664506	-0.0310432	0.702751	0.119665	0	0	0.0594326	-0.17839	-0.174081	0.688257	0.167921	0	0	0.205478	0.138997	-0.290853	-0.27451	-0.249164	0.754244	0.297226	1.06803	0	0	0.0462113	-0.42884	0.49964	0.601527	1.33341	0	0
0.22	-2.80355	1.34926	1.42226	0.744358	0.849484	0.986965	0.789255	0.00417373	-0.0388064	0.712917	0.0962372	0	0	0.0601285	-0.18945	-0.165859	0.711888	0.147008	0	0	0.206224	0.152571	-0.286512	-0.268337	-0.251073	0.772948	0.292354	1.05231	0	0	0.0400169	-0.418991	0.499654	0.589185	1.33634	0	0
0.23	-2.77551	1.34948	1.38618	0.742729	0.835441	0.988142	0.785386	0.0145403	-0.0483287	0.726183	0.0774086	0	0	0.0625012	-0.198217	-0.159106	0.73937	0.121007	0	0	0.205158	0.165097	-0.276456	-0.267541	-0.244986	0.72221	0.283988	1.10997	0	0	0.0349553	-0.40905	0.501692	0.577639	1.33806	0	0
0.24	-2.75565	1.34952	1.35647	0.740938	0.821472	0.989352	0.782308	0.0242879	-0.0569775	0.74093	0.0681301	0	0	0.0683596	-0.204356	-0.151633	0.770693	0.0884683	0	0	0.205036	0.175	-0.266335	-0.257997	-0.252366	0.780808	0.284801	1.05722	0	0	0.0269805	-0.401473	0.506525	0.569553	1.33114	0	0
0.25	-2.74235	1.34946	1.33227	0.739022	0.80771	0.990538	0.77825	0.03398	-0.0635896	0.753768	0.0614506	0	0	0.0777331	-0.20769	-0.141272	0.80524	0.0578584	0	0	0.203471	0.183508	-0.253422	-0.252953	-0.252578	0.772106	0.283416	1.07475	0	0	0.0179013	-0.39425	0.507168	0.564995	1.32789	0	0
0.26	-2.73182	1.34962	1.31091	0.737049	0.794191	0.991717	0.772219	0.0430108	-0.0711125	0.763978	0.0569133	0	0	0.0900084	-0.208831	-0.127248	0.842573	0.0349235	0	0	0.200551	0.19095	-0.241134	-0.244145	-0.256443	0.790119	0.285398	1.06427	0	0	0.00539973	-0.385957	0.494273	0.563699	1.33565	0	0
0.27	-2.72028	1.34887	1.28968	0.735044	0.780879	0.992815	0.764873	0.051351	-0.0816736	0.771348	0.0553607	0	0	0.106454	-0.209986	-0.111495	0.882336	0.00444925	0	0	0.19876	0.198115	-0.228915	-0.23507	-0.261538	0.812192	0.2897	1.05122	0	0	-0.00528879	-0.37967	0.492414	0.563184	1.33119	0	0
0.28	-2.70685	1.34791	1.2673	0.733063	0.767922	0.993867	0.756091	0.0596511	-0.0930288	0.776214	0.057272	0	0	0.125947	-0.211114	-0.0945842	0.924904	-0.0258055	0	0	0.195777	0.205523	-0.213542	-0.23394	-0.256901	0.741728	0.290661	1.13144	0	0	-0.0114144	-0.375823	0.505218	0.563435	1.31497	0	0
0.29	-2.69372	1.34647	1.24597	0.731181	0.755324	0.994835	0.746322	0.0682917	-0.102418	0.778877	0.0637264	0	0	0.148649	-0.211692	-0.0764613	0.970129	-0.0533759	0	0	0.194182	0.212242	-0.202225	-0.220421	-0.271609	0.812727	0.306299	1.05677	0	0	-0.0200962	-0.372917	0.516664	0.565052	1.29928	0	0
0.3	-2.68077	1.34497	1.22622	0.729433	0.743059	0.995823	0.735151	0.0769009	-0.109246	0.779154	0.069304	0	0	0.173839	-0.21113	-0.0555979	1.01731	-0.0749463	0	0	0.191248	0.218634	-0.190629	-0.211907	-0.27519	0.798787	0.313581	1.06894	0	0	-0.0283182	-0.368089	0.519958	0.566341	1.29695	0	0
0.31	-2.66925	1.34416	1.20854	0.727816	0.731099	0.996931	0.722122	0.0853855	-0.112482	0.778018	0.0752581	0	0	0.200362	-0.20909	-0.0341134	1.0649	-0.0965582	0	0	0.186651	0.224017	-0.182555	-0.198758	-0.279246	0.794401	0.319349	1.07346	0	0	-0.0403639	-0.361176	0.506975	0.569201	1.30985	0	0
0.32	-2.66009	1.34468	1.19316	0.726295	0.719324	0.998245	0.706448	0.0937256	-0.11124	0.77595	0.0855493	0	0	0.226954	-0.205966	-0.0152896	1.11074	-0.124685	0	0	0.181785	0.228115	-0.172635	-0.185177	-0.287228	0.806275	0.33059	1.05244	0	0	-0.0475085	-0.356252	0.512029	0.569308	1.30986	0	0
0.33	-2.65534	1.34634	1.18172	0.724867	0.707615	0.99977	0.688717	0.101301	-0.105756	0.772705	0.098557	0	0	0.253159	-0.201788	-0.000599468	1.15294	-0.155321	0	0	0.175852	0.231034	-0.156291	-0.183881	-0.284632	0.722775	0.339347	1.12275	0	0	-0.0469684	-0.352393	0.536299	0.565345	1.30073	0	0
0.34	-2.65548	1.34859	1.17501	0.723621	0.69602	1.00143	0.670198	0.107585	-0.097973	0.768386	0.110421	0	0	0.279054	-0.195999	0.0117247	1.19129	-0.175358	0	0	0.171522	0.232445	-0.143733	-0.16833	-0.299272	0.766109	0.356544	1.05711	0	0	-0.0489871	-0.347852	0.557968	0.560157	1.29176	0	0
0.35	-2.6628	1.35044	1.17622	0.722536	0.684516	1.00315	0.652613	0.112037	-0.0903117	0.763685	0.115259	0	0	0.305577	-0.188254	0.0229998	1.22547	-0.17908	0	0	0.165981	0.231682	-0.136458	-0.153797	-0.29938	0.735259	0.358429	1.0922	0	0	-0.0600257	-0.339778	0.545885	0.559856	1.30784	0	0
0.36	-2.67098	1.35195	1.1789	0.721568	0.673085	1.00487	0.635007	0.116138	-0.0831468	0.757391	0.124158	0	0	0.332425	-0.180991	0.0315329	1.25585	-0.178148	0	0	0.162663	0.230798	-0.126665	-0.140136	-0.308245	0.737684	0.371591	1.0777	0	0	-0.0657148	-0.333276	0.552584	0.555954	1.31252	0	0
0.37	-2.68061	1.35318	1.18345	0.720678	0.661747	1.00655	0.618242	0.119661	-0.0770281	0.750736	0.131807	0	0	0.359309	-0.173475	0.0383156	1.28302	-0.166241	0	0	0.159984	0.229384	-0.117027	-0.127334	-0.318348	0.73806	0.38764	1.06368	0	0	-0.0714327	-0.327539	0.560495	0.552712	1.31813	0	0
